<svg xmlns="http://www.w3.org/2000/svg" viewBox="0 0 37.01 36.96"><title>icn-menu-person</title><ellipse cx="18.51" cy="18.48" rx="18.51" ry="18.48"/><path d="M20.42,17.5H16.59a6,6,0,0,0-6,6V29a.73.73,0,0,0,.73.73H25.67A.73.73,0,0,0,26.4,29v-5.5A6,6,0,0,0,20.42,17.5Zm4.52,10.74H12.07V23.48A4.52,4.52,0,0,1,16.59,19h3.83a4.52,4.52,0,0,1,4.52,4.51Z" style="fill:#fff"/><path d="M18.51,5.47a5.27,5.27,0,1,0,5.28,5.27A5.28,5.28,0,0,0,18.51,5.47Zm0,9.08a3.81,3.81,0,1,1,3.82-3.81A3.82,3.82,0,0,1,18.51,14.55Z" style="fill:#fff"/></svg>