<svg xmlns="http://www.w3.org/2000/svg" viewBox="0 0 37.01 36.96"><title>icn-menu-phone</title><ellipse cx="18.51" cy="18.48" rx="18.51" ry="18.48"/><circle cx="18.25" cy="26.28" r="1.23" style="fill:#fff"/><path d="M23.07,7H13.44a2.68,2.68,0,0,0-2.67,2.67V27.39a2.67,2.67,0,0,0,2.67,2.67h9.62a2.67,2.67,0,0,0,2.67-2.67V9.66A2.68,2.68,0,0,0,23.07,7Zm1.32,20.39a1.32,1.32,0,0,1-1.32,1.32H13.44a1.32,1.32,0,0,1-1.32-1.32V9.66a1.32,1.32,0,0,1,1.32-1.32h9.62a1.32,1.32,0,0,1,1.32,1.32Z" style="fill:#fff"/><path d="M20.35,10H16.16a.68.68,0,1,0,0,1.35h4.18a.68.68,0,1,0,0-1.35Z" style="fill:#fff"/><path d="M25.06,22.48H11.45a.68.68,0,1,0,0,1.35H25.06a.68.68,0,1,0,0-1.35Z" style="fill:#fff"/></svg>