<svg xmlns="http://www.w3.org/2000/svg" viewBox="0 0 29.4 29.4"><title>icn-footer-vk</title><path d="M29.4,14.71A14.7,14.7,0,1,1,14.7,0,14.71,14.71,0,0,1,29.4,14.71Z" style="fill:#fff;fill-rule:evenodd"/><path d="M14.17,9.79h.09l.6,0,.31,0,.17,0,.39.08.21.06a.66.66,0,0,1,.4.27,1.79,1.79,0,0,1,.1.17,1.28,1.28,0,0,1,.05.15,1.59,1.59,0,0,1,.06.47c0,.25,0,.5,0,.75s0,.37,0,.56,0,.54,0,.82,0,.66,0,1,0,.41,0,.62,0,.22,0,.33a.52.52,0,0,0,0,.14,2.59,2.59,0,0,0,.11.29.78.78,0,0,0,.18.24.63.63,0,0,0,.13.1.38.38,0,0,0,.36,0,2,2,0,0,0,.27-.19,3.33,3.33,0,0,0,.5-.52l.31-.4.07-.1.19-.29.34-.52.32-.53.1-.18.17-.33.15-.3.16-.35.13-.27.08-.18.11-.26.13-.3,0-.09c0-.08.08-.16.11-.24a.9.9,0,0,1,.17-.29.5.5,0,0,1,.13-.11.75.75,0,0,1,.16-.06l.07,0h3.64a1.36,1.36,0,0,1,.44,0,1,1,0,0,1,.29.08c.09.06.18.09.21.21h0a.24.24,0,0,1,0,.15,1.32,1.32,0,0,1-.07.42.52.52,0,0,1,0,.07l-.12.28-.12.26a3.34,3.34,0,0,1-.22.41l-.1.16-.19.29-.28.42-.19.28-.19.26-.27.35-.27.36-.38.5-.3.4-.3.4-.25.35a1.81,1.81,0,0,0-.29.59.77.77,0,0,0,0,.3.47.47,0,0,0,.09.27l0,0a1.16,1.16,0,0,0,.12.2,5.88,5.88,0,0,0,.51.54l.52.47.08.08.16.16.29.27.18.18.16.16.19.22.3.33.12.14.3.39.17.24.19.31a2.19,2.19,0,0,1,.11.2,1.28,1.28,0,0,1,.07.19.59.59,0,0,1-.11.56.64.64,0,0,1-.26.19,3.14,3.14,0,0,1-.4.13,1.24,1.24,0,0,1-.29,0h-3a1,1,0,0,1-.35,0,.91.91,0,0,1-.26-.09l-.06,0a2.2,2.2,0,0,1-.25-.11l-.31-.2A2.92,2.92,0,0,1,20,21.6l-.37-.36-.48-.52-.49-.55c-.16-.17-.31-.33-.48-.48a1.36,1.36,0,0,0-.43-.28.85.85,0,0,0-.22-.06.5.5,0,0,0-.33.1.93.93,0,0,0-.3.31l-.09.18,0,.11a.35.35,0,0,1,0,.05,1.91,1.91,0,0,0-.12.38,1,1,0,0,0,0,.19c0,.09,0,.19,0,.28s0,.26,0,.4a1.21,1.21,0,0,1-.08.5.5.5,0,0,1-.3.29l-.06,0-.16.07a.85.85,0,0,1-.29,0h-1a5.64,5.64,0,0,1-.93-.06l-.13,0-.35-.07-.16,0L12.62,22l-.15,0-.21-.07L12,21.79l-.16-.07-.06,0-.27-.12-.26-.12L11,21.26l-.23-.13-.49-.33L10,20.6l-.38-.32-.41-.38L9,19.68l-.32-.34-.2-.24L8,18.51l-.15-.19L7.64,18l-.18-.24-.37-.57-.24-.36-.16-.27-.11-.17-.12-.2L6.33,16l-.11-.16-.12-.23-.26-.45-.32-.6-.24-.45-.15-.29L5,13.64l-.12-.21h0l-.09-.22,0,0-.14-.26-.1-.21-.12-.24,0-.1-.11-.23-.12-.27-.12-.25-.11-.25a2.12,2.12,0,0,1-.18-.52.34.34,0,0,1,.16-.36l0,0,.12-.05h.06a.89.89,0,0,1,.26,0H7.32a.91.91,0,0,1,.4,0l.24.09a.82.82,0,0,1,.37.41,2.34,2.34,0,0,1,.1.24l0,0,.14.33.1.25.12.23.11.24.15.3.12.24v0L9.3,13l.14.25.17.3.2.32.27.44.27.42.2.29.2.26a2.58,2.58,0,0,0,.51.53.92.92,0,0,0,.36.18.44.44,0,0,0,.46-.21c0-.07.07-.16.12-.24a1.85,1.85,0,0,0,.11-.4,1.25,1.25,0,0,0,0-.21c0-.17,0-.34.06-.5s0-.37,0-.56,0-.5,0-.75,0-.33,0-.5a3.61,3.61,0,0,0,0-.51c0-.08,0-.17,0-.25a1.75,1.75,0,0,0-.13-.43c0-.08-.08-.15-.13-.23a.85.85,0,0,0-.21-.21,1.19,1.19,0,0,0-.33-.18.88.88,0,0,0-.35-.09h0c-.07,0-.08-.05-.06-.12a.36.36,0,0,1,.1-.16l.21-.19a.81.81,0,0,1,.17-.11l.23-.09L12,9.95l.1,0a1.58,1.58,0,0,1,.38-.07l.27,0,.29,0h1.13Z" style="fill:#000"/></svg>