<svg xmlns="http://www.w3.org/2000/svg" viewBox="0 0 29.4 29.4"><title>icn_footer_tw</title><path d="M29.4,14.7A14.7,14.7,0,1,1,14.71,0,14.7,14.7,0,0,1,29.4,14.7Z" style="fill:#fff;fill-rule:evenodd"/><path d="M5,22.11a9.2,9.2,0,0,0,4.53-.78,7.88,7.88,0,0,0,1.81-1.07,4.41,4.41,0,0,1-3.95-2.78c-.1-.25-.1-.25.18-.23a3.46,3.46,0,0,0,1.59-.11,5.33,5.33,0,0,1-1-.39,4.35,4.35,0,0,1-2.35-3.7c0-.2,0-.22.21-.13a4.06,4.06,0,0,0,1.71.44,7.8,7.8,0,0,1-.74-.66,4.42,4.42,0,0,1-.68-4.92c.11-.21.15-.21.31,0A12.3,12.3,0,0,0,14.1,12c.32,0,.65.06,1,.11s.23-.06.2-.23A4.35,4.35,0,0,1,22.57,8a.42.42,0,0,0,.46.11,8.77,8.77,0,0,0,2.3-.9l.18-.11a4.44,4.44,0,0,1-1.84,2.39A8.67,8.67,0,0,0,26,8.85c0,.11-.05.18-.1.24a8.63,8.63,0,0,1-1.8,1.84.34.34,0,0,0-.17.36,12.64,12.64,0,0,1-3,8.48,11.51,11.51,0,0,1-7.24,4.07,12.46,12.46,0,0,1-8.64-1.68A.3.3,0,0,0,5,22.11Z" style="fill:#b7b8b6;fill-rule:evenodd"/></svg>