<svg xmlns="http://www.w3.org/2000/svg" viewBox="0 0 37.01 36.96"><title>icn_menu_cart</title><ellipse cx="18.51" cy="18.48" rx="18.51" ry="18.48"/><path d="M9.86,7.27a.74.74,0,0,0-1.43.43l4.32,14.4A3.59,3.59,0,0,0,16,24.54h8.2a3.59,3.59,0,0,0,3.29-2.44l2.07-6.88a2.15,2.15,0,0,0-2.14-2.87H14a.74.74,0,1,0,0,1.48H27.46a.67.67,0,0,1,.71,1L26.1,21.67a2.12,2.12,0,0,1-1.86,1.38H16a2.12,2.12,0,0,1-1.86-1.38Z" style="fill:#fff"/><circle cx="14.61" cy="28.3" r="2.01" style="fill:#fff"/><circle cx="25.31" cy="28.3" r="2.01" style="fill:#fff"/></svg>