<svg xmlns="http://www.w3.org/2000/svg" viewBox="0 0 29.4 29.4"><title>icn_footer_ins</title><path d="M29.4,14.71A14.7,14.7,0,1,1,14.69,0,14.69,14.69,0,0,1,29.4,14.71Z" style="fill:#fff"/><path d="M20.6,6.72H8.81A1.89,1.89,0,0,0,6.7,8.85V20.61A1.88,1.88,0,0,0,8.76,22.7H20.6a1.89,1.89,0,0,0,2.1-2.12V8.82A1.88,1.88,0,0,0,20.6,6.72Zm-1.3,1.8c1.58,0,1.58,0,1.58,1.6s0,1.55-1.55,1.55-1.58,0-1.58-1.58S17.75,8.52,19.3,8.52Zm-4.59,3.09a3.1,3.1,0,1,1-3.12,3.06A3.14,3.14,0,0,1,14.71,11.61Zm6.17,8.33c0,.74-.21.95-1,.95H9.47c-.73,0-.94-.2-.94-.95,0-1.94,0-3.89,0-5.83,0-.55.15-.68.67-.66.73.06.74,0,.65.73a4.91,4.91,0,1,0,9.69-.37c-.06-.27,0-.33.26-.33,1.11-.08,1.11-.11,1.11,1Z" style="fill:#b7b8b6;fill-rule:evenodd"/></svg>