<svg xmlns="http://www.w3.org/2000/svg" viewBox="0 0 29.4 29.4"><title>icn_footer_od</title><path d="M29.4,14.71A14.7,14.7,0,1,1,14.7,0,14.71,14.71,0,0,1,29.4,14.71Z" style="fill:#fff;fill-rule:evenodd"/><path d="M20.61,17.14c-.77,1.55-2.4,1.71-3.82,2.34.17.19.29.36.44.51l2.4,2.4a1.48,1.48,0,1,1-2.08,2.08c-.84-.83-1.69-1.67-2.51-2.52-.26-.27-.44-.26-.7,0-.83.85-1.68,1.68-2.51,2.52a1.51,1.51,0,0,1-1.72.4,1.46,1.46,0,0,1-.46-2.41c.82-.86,1.67-1.68,2.51-2.52.13-.14.25-.29.43-.49-.44-.15-.82-.25-1.17-.41a17.37,17.37,0,0,1-1.88-.91A1.44,1.44,0,0,1,9,16.07a1.48,1.48,0,0,1,2-.46,7.05,7.05,0,0,0,3.73,1,6.64,6.64,0,0,0,3-.76c1.55-.81,1.87-.74,2.83.71Z" style="fill:#000"/><path d="M14.7,15.2A5.27,5.27,0,1,1,20,9.93,5.28,5.28,0,0,1,14.7,15.2Zm0-7.74a2.47,2.47,0,1,0,2.47,2.47A2.47,2.47,0,0,0,14.7,7.46Z" style="fill:#000"/></svg>