<svg xmlns="http://www.w3.org/2000/svg" viewBox="0 0 74.38 44"><title>img-footer-mastercard</title><path d="M35.8,5a23.93,23.93,0,0,0-6.2,10.19c.61,0,1.12,0,1.63,0,.13,0,.28-.27.35-.44a22.3,22.3,0,0,1,5.07-8.12A4.65,4.65,0,0,0,37.07,6a21,21,0,0,1,4.58,6.08c.44.88.8,1.8,1.16,2.72.11.28.23.4.54.39s.88,0,1.43,0A23.69,23.69,0,0,0,38.54,5c6.9-6.1,19.63-7.41,28.59.71A22,22,0,0,1,38.52,39a23.71,23.71,0,0,0,6.26-10.21,13.94,13.94,0,0,0-1.57,0c-.15,0-.33.27-.4.45a22.17,22.17,0,0,1-5.18,8.18,6.28,6.28,0,0,0-.43.56c-.81-.92-1.57-1.71-2.25-2.57a20.71,20.71,0,0,1-3.33-6.09c-.14-.41-.33-.6-.78-.55a11.87,11.87,0,0,1-1.25,0A23.81,23.81,0,0,0,35.78,39,21.75,21.75,0,0,1,7.1,38.17,21.95,21.95,0,0,1,35.8,5ZM10,27.17c.67,0,1.27,0,1.86,0,.35,0,.46-.12.52-.45.41-2.25.84-4.49,1.26-6.73.16-.87.32-1.73.49-2.66-1.07,0-2.05,0-3,0a.74.74,0,0,0-.83.52C9.58,19.41,8.86,21,8.16,22.5c-.08.18-.17.36-.26.55l-.11,0-.42-5.69c-1.11,0-2.16,0-3.2,0-.14,0-.37.25-.4.41C3.39,19.55,3,21.33,2.7,23.12l-.77,4h2.2l1.27-6.59h.12l.57,6.62c.6,0,1.16,0,1.71,0a.78.78,0,0,0,.54-.37c.48-1,.91-2,1.36-3l1.4-3.11.09,0Zm60.49,0,1.92-10.3H70.08l-.59,3c-.41-.28-.75-.68-1.14-.75-1.31-.25-2.64-.25-3.57.91a5.6,5.6,0,0,0-1.35,4.47,2.77,2.77,0,0,0,2.25,2.61,9.08,9.08,0,0,0,2.13-.39c.14.11.35.41.59.44C69.06,27.21,69.74,27.17,70.48,27.17ZM14.41,20.92c1.17-.05,2.23-.13,3.3-.13.73,0,.92.33.73,1.06l-1.79.09a3.36,3.36,0,0,0-3.31,2.72,2,2,0,0,0,1.55,2.42,3.76,3.76,0,0,0,2.41-.22,6.72,6.72,0,0,0,1,.3c.36,0,.74,0,1.1,0s.47-.07.54-.42c.27-1.46.6-2.91.87-4.38.32-1.75-.32-2.88-1.89-3.26a10.18,10.18,0,0,0-4,.09.35.35,0,0,0-.25.2C14.59,19.91,14.51,20.41,14.41,20.92Zm41.51.93c-.61,0-1.22,0-1.84.09a3.34,3.34,0,0,0-3.26,2.7,2,2,0,0,0,1.58,2.45,4,4,0,0,0,2.53-.3c.75.71,1.6.22,2.39.39.34-1.68.71-3.28,1-4.9s-.36-2.92-1.93-3.14a22.67,22.67,0,0,0-3.92.06.34.34,0,0,0-.26.19c-.12.51-.2,1-.29,1.54,1.15-.05,2.21-.13,3.27-.14C55.89,20.78,56.08,21.08,55.92,21.85Zm-3.81-3.64a4.06,4.06,0,0,0-4.2-1.2,5.77,5.77,0,0,0-4.16,5.89,3.9,3.9,0,0,0,2,3.77,5.43,5.43,0,0,0,4.58,0l-.32-1-.33-1-.57.13c-1.38.27-2.47-.2-2.83-1.29-.65-1.95.66-4.79,3.38-4.2a1.66,1.66,0,0,0,1.86-.67A4.73,4.73,0,0,1,52.11,18.21ZM33.55,23.6a.64.64,0,0,1,.15,0c1.32,0,2.64,0,4,0,.57,0,.77-.15.85-.71.28-1.89-.32-3.29-1.77-3.64a5.84,5.84,0,0,0-2.35-.1c-2.16.39-3.63,3-3.11,5.28A3,3,0,0,0,33.8,27a18.07,18.07,0,0,0,3.52-.1c.17,0,.4-.28.46-.47A8.07,8.07,0,0,0,38,25.3c-1,0-2.07,0-3.09,0S33.41,24.71,33.55,23.6Zm-6.38-4.36a6,6,0,0,0-4.66.33,2.25,2.25,0,0,0-1,2.21,1.68,1.68,0,0,0,1.17,1.62,13.53,13.53,0,0,1,1.33.7c.32.18.64.44.43.82a1.07,1.07,0,0,1-.75.46c-.9.06-1.8,0-2.79,0l-.28,1.47a9.2,9.2,0,0,0,4.5,0,2.41,2.41,0,0,0,.66-.35,2.3,2.3,0,0,0-.08-3.87c-.4-.24-.82-.44-1.22-.66s-.67-.43-.48-.8a1.1,1.1,0,0,1,.79-.42,18.65,18.65,0,0,1,1.88,0ZM28.73,17c-.53,2.74-1.1,5.46-1.57,8.2a1.55,1.55,0,0,0,1.28,1.91,7.17,7.17,0,0,0,1.93-.16.39.39,0,0,0,.24-.27c.07-.47.09-1,.14-1.43l-.69-.07a.56.56,0,0,1-.55-.68c.19-1.19.43-2.38.65-3.6h1.13l.4-1.76H30.52L30.94,17Zm29.46,10.2c.68,0,1.3,0,1.91,0a.58.58,0,0,0,.38-.36c.12-.45.16-.91.27-1.37.24-1,.46-2.07.78-3.08a1.64,1.64,0,0,1,1.55-1.21c.11,0,.29-.09.31-.18.19-.62.36-1.24.53-1.86l-.12-.17-2,.69-.18-.56H59.71Zm-17.58,0c.09-.46.15-.88.25-1.3.27-1.16.5-2.34.86-3.47a1.58,1.58,0,0,1,1.52-1.15.49.49,0,0,0,.36-.26c.18-.58.32-1.18.53-2L42,19.69c0-.71-.55-.59-1.08-.58a2.83,2.83,0,0,1-.46,0c-.41-.06-.57.11-.64.52-.19,1.18-.44,2.36-.65,3.53s-.48,2.64-.73,4Z" style="fill:#fff"/><path d="M68.8,22.42a2.84,2.84,0,0,1-.75,2,1.28,1.28,0,0,1-1.39.48,1.26,1.26,0,0,1-.88-1.05A2.84,2.84,0,0,1,67.19,21a1.05,1.05,0,0,1,1.58.92C68.79,22.11,68.79,22.27,68.8,22.42Z" style="fill:#fff"/><path d="M18,23.57c0,1.22-.71,2-1.74,1.82a.73.73,0,0,1-.5-1.25A1.89,1.89,0,0,1,18,23.57Z" style="fill:#fff"/><path d="M55.56,23.54c-.15,1.27-.49,1.78-1.38,1.83a1.4,1.4,0,0,1-1-.41c-.28-.33,0-.72.29-1A2.11,2.11,0,0,1,55.56,23.54Z" style="fill:#fff"/><path d="M36.4,22H33.71a1.63,1.63,0,0,1,1.86-1.43C36.25,20.7,36.5,21.1,36.4,22Z" style="fill:#fff"/></svg>