<svg xmlns="http://www.w3.org/2000/svg" viewBox="0 0 82.16 26.6"><title>img-footer-visa</title><path d="M82.16,26.21H76l-.8-3.85H66.89a.28.28,0,0,0-.32.23c-.41,1.15-.83,2.3-1.25,3.46,0,.12-.09.18-.24.18H58.29l.08-.22L68.12,2.7A3.42,3.42,0,0,1,69.54.93,3.78,3.78,0,0,1,71.42.47h5.22c.15,0,.17.08.2.2l1.22,5.85L81,20.4,82.12,26C82.13,26,82.14,26.12,82.16,26.21Zm-10-18.69h0l-3.51,9.57h5.53Z" style="fill:#fff"/><path d="M30.39.46l-.09.23L20,26a.27.27,0,0,1-.3.2h-6.6c-.18,0-.24-.06-.29-.23Q10.28,16.33,7.73,6.69C7.49,5.79,7.25,4.89,7,4a.46.46,0,0,0-.24-.31A27.43,27.43,0,0,0,.21,1C.1,1,0,1,0,.82S0,.48.29.48c1.18,0,2.37,0,3.55,0h6.76a4.59,4.59,0,0,1,1.56.23,2.48,2.48,0,0,1,1.65,2q1.13,5.73,2.26,11.46c.25,1.25.51,2.49.78,3.8l.1-.24q3.16-8.52,6.32-17a.35.35,0,0,1,.4-.27h6.74Z" style="fill:#fff"/><path d="M58.81,6.63c-.48-.19-.94-.4-1.42-.57A11,11,0,0,0,52,5.51a3.58,3.58,0,0,0-1.88.81,1.59,1.59,0,0,0-.14,2.45A6.64,6.64,0,0,0,51.69,10c1,.53,2,1,3,1.57a9.78,9.78,0,0,1,2.43,1.91,6.16,6.16,0,0,1,1.67,4.78,7.8,7.8,0,0,1-2.54,5.4,9.92,9.92,0,0,1-3.48,2,16.75,16.75,0,0,1-6.58.85,21.44,21.44,0,0,1-4.89-.8c-.46-.13-.9-.32-1.36-.47-.12,0-.15-.1-.13-.23q.45-2.74.88-5.47a1,1,0,0,1,0-.12l.23.09a16.74,16.74,0,0,0,3.49,1.32,11.84,11.84,0,0,0,4.81.2,3.83,3.83,0,0,0,1.83-.83,1.93,1.93,0,0,0,.14-2.95,6.7,6.7,0,0,0-1.67-1.19c-.84-.45-1.69-.87-2.52-1.33a10.44,10.44,0,0,1-3.27-2.68,5.79,5.79,0,0,1-1.17-4.39,7.76,7.76,0,0,1,4-5.91A12.61,12.61,0,0,1,51.77.12,16.78,16.78,0,0,1,59.19.9c.54.18.54.19.45.75q-.39,2.4-.78,4.8C58.84,6.51,58.82,6.57,58.81,6.63Z" style="fill:#fff"/><path d="M39.75.48,35.59,26.2H28.93L29.12,25l1.21-7.5L31.55,10,32.76,2.5c.1-.61.2-1.23.29-1.85,0-.15.09-.2.24-.2h6.45Z" style="fill:#fff"/></svg>