<?xml version="1.0" encoding="utf-8"?>
<!-- Generator: Adobe Illustrator 21.1.0, SVG Export Plug-In . SVG Version: 6.00 Build 0)  -->
<svg version="1.1" id="Layer_1" xmlns="http://www.w3.org/2000/svg" xmlns:xlink="http://www.w3.org/1999/xlink" x="0px" y="0px"
	 viewBox="0 0 180.3 73" style="enable-background:new 0 0 180.3 73;" xml:space="preserve">
<style type="text/css">
	.st0{fill:#F41864;}
	.st1{font-family:'IntroFriday';}
	.st2{font-size:20.1055px;}
	.st3{letter-spacing:-2;}
	.st4{letter-spacing:-3;}
	.st5{letter-spacing:1;}
	.st6{fill:#FFFFFF;}
</style>
<text transform="matrix(1.0013 -0.1229 0 1 68.7307 37.0306)"><tspan x="0" y="0" class="logo-url-text st0 st1 st2">FRIDAY.RU</tspan></text>
<path class="st6" d="M118.6,56.6c-0.5,0-1,0.5-1,1.1c-0.1,1.6,0,3.2,0,4.7c0,0.8-0.1,1.5,0.1,2.3c0.2,0.5,0.8,0.9,1.4,0.7
	c2.3-0.3,4.6-0.6,6.8-0.8c0.3,0,0.7-0.1,0.9-0.4c0.4-0.3,0.3-0.9,0.4-1.4c0-1.6,0-3.2,0-4.7c0-0.6,0-1.2-0.1-1.7
	c-0.2-0.5-0.7-0.7-1.2-0.7C123.4,56,121,56.3,118.6,56.6 M35.3,48.6c-0.3,0-0.6,0.1-0.9,0.3c-0.2,0.3-0.4,0.6-0.3,1
	c0,1.9,0,3.8,0,5.7c-0.7,0.1-1.4,0.2-2.1,0.3c0-1.6,0-3.1,0-4.7c0-0.5,0-1.1-0.2-1.6c-0.3-0.4-0.9-0.5-1.4-0.4
	c-2.2,0.3-4.4,0.6-6.7,0.8c-0.4,0-0.9,0.1-1.2,0.4c-0.4,0.3-0.3,0.9-0.4,1.4c0,6.4,0,12.8,0,19.2c0,0.5,0,1.1,0.3,1.6
	c0.2,0.2,0.4,0.4,0.7,0.4c0.6,0,1.2-0.1,1.8-0.2c1.9-0.2,3.8-0.5,5.7-0.7c0.4,0,0.9-0.1,1.1-0.5c0.3-0.4,0.3-0.9,0.3-1.3
	c0-1.9,0-3.8,0-5.7c0.7-0.1,1.4-0.2,2.1-0.3c0,1.9,0,3.7,0,5.6c0,0.4,0,0.8,0.3,1.1c0.3,0.4,0.8,0.5,1.3,0.4
	c2.3-0.3,4.5-0.6,6.8-0.8c0.4,0,0.8-0.1,1.1-0.3c0.3-0.3,0.4-0.7,0.3-1c0-6.7,0-13.5,0-20.2c0-0.4,0-1-0.4-1.2
	c-0.4-0.3-0.9-0.2-1.4-0.2C39.8,48,37.6,48.3,35.3,48.6 M59.3,45.6c-0.4,0.1-0.6,0.5-0.9,0.8c-1.2,2.3-2.5,4.5-3.7,6.8
	c-0.1-1.9,0-3.8,0-5.7c0-0.5-0.3-1-0.8-1.2c-0.7-0.1-1.4,0.1-2,0.1c-1.8,0.2-3.7,0.4-5.5,0.7c-0.4,0-0.8,0.2-1,0.5
	c-0.2,0.2-0.2,0.6-0.2,0.9c0,6.1,0,12.2,0,18.3c0,0.8,0,1.7,0,2.5c0.1,0.4,0.4,0.7,0.8,0.8c0.8,0,1.7-0.1,2.5-0.2
	c1.7-0.2,3.4-0.4,5.2-0.6c0.4,0,0.9-0.3,1.1-0.6c1.3-2.3,2.5-4.6,3.8-6.9c0,1.7,0,3.5,0,5.2c0,0.4,0,0.8,0.3,1.1
	c0.2,0.4,0.7,0.5,1.1,0.4c1.1-0.1,2.3-0.3,3.4-0.4c1.3-0.2,2.7-0.3,4-0.5c0.5-0.1,0.8-0.5,0.8-1c0-6.8,0-13.7,0-20.5
	c0-0.4,0-1-0.4-1.2c-0.4-0.3-0.9-0.2-1.4-0.2C63.9,45.1,61.6,45.3,59.3,45.6 M82.7,42.7c-0.6,0-1.3,0.3-1.4,1c0,4.4,0,8.9,0,13.3
	c-0.7,0.1-1.5,0.2-2.2,0.3c0-4.2,0-8.3,0-12.5c0-0.5-0.1-1.1-0.5-1.3c-0.3-0.3-0.8-0.2-1.2-0.1c-2,0.3-4,0.5-6.1,0.8
	c-0.5,0.1-1.1,0.1-1.6,0.3c-0.3,0.3-0.4,0.7-0.4,1.1c0,6.7,0,13.4,0,20.2c0,0.3,0,0.7,0.2,1c0.2,0.2,0.4,0.4,0.7,0.4
	c0.6,0,1.3-0.1,1.9-0.2c2-0.3,4-0.5,6.1-0.8c1-0.1,2.1-0.3,3.1-0.3c0,1,0,2,0,3.1c0.1,0.6,0.8,1,1.3,0.9c0.9-0.1,1.7-0.2,2.6-0.3
	c1-0.1,1.9-0.2,2.9-0.4c0.5-0.1,0.7-0.6,0.8-1.1c1.2-3.5,2.4-7,3.6-10.5c0.2-0.4,0.3-1,0-1.4c-0.3-0.5-0.9-0.5-1.4-0.5
	c0-4,0-8.1,0-12.1c0-0.5,0-1.2-0.5-1.5c-0.4-0.3-0.9-0.2-1.4-0.2C87,42.2,84.8,42.5,82.7,42.7 M100.1,40.6c-0.5,0-0.9,0.4-1.1,0.9
	c-2.4,7.1-4.9,14.2-7.3,21.4c-0.1,0.4-0.1,0.9,0.3,1.3c0.3,0.4,0.8,0.4,1.3,0.3c2.6-0.3,5.2-0.6,7.9-1c0.4-0.1,0.7-0.5,0.8-0.9
	c0.2-0.6,0.3-1.2,0.4-1.9c1.2-0.2,2.5-0.3,3.8-0.5c0.2,0.6,0.3,1.3,0.6,1.9c0.3,0.4,0.9,0.6,1.4,0.5c2-0.3,4.1-0.5,6.1-0.8
	c0.6-0.1,1.3-0.1,1.9-0.3c0.5-0.2,0.9-0.8,0.7-1.4c-0.1-0.5-0.4-1.1-0.5-1.6c-2.2-6-4.4-12.1-6.6-18.1c-0.1-0.3-0.2-0.6-0.5-0.7
	c-0.4-0.3-0.9-0.2-1.3-0.2C105.3,40,102.7,40.3,100.1,40.6 M118.1,38.4c-0.4,0-0.9,0.2-1.2,0.6c-0.3,0.7-0.1,1.5,0,2.2
	c0.4,4.2,0.8,8.4,1.2,12.6c0,0.4,0.1,0.8,0.3,1.1c0.3,0.4,1,0.5,1.5,0.4c1.7-0.2,3.4-0.4,5.2-0.6c0.5-0.1,1-0.1,1.3-0.4
	c0.4-0.3,0.4-0.8,0.4-1.3c0.3-3.1,0.6-6.2,0.8-9.2c0.2-1.7,0.3-3.3,0.5-5v-0.5c-0.2-0.3-0.4-0.8-0.8-0.9c-0.8-0.1-1.7,0.1-2.5,0.2
	C122.5,37.8,120.3,38.1,118.1,38.4 M1.2,28.5c-0.4,0-0.8,0.2-1,0.5C0,29.2,0,29.6,0,29.9c0,6.6,0,13.2,0,19.8c0,0.4-0.1,0.9,0.2,1.3
	c0.1,0.2,0.4,0.4,0.6,0.4c0.9,0,1.7-0.1,2.5-0.2C5,51,6.7,50.8,8.4,50.6c0.3-0.1,0.7-0.1,0.9-0.3c0.5-0.3,0.4-0.9,0.5-1.4
	c0-4.2,0-8.4,0-12.6c0.7-0.1,1.4-0.2,2.1-0.3c0,4.2,0,8.5,0,12.7c-0.1,0.6,0.3,1.2,0.9,1.3c0.6,0,1.1-0.1,1.7-0.2
	c1.9-0.2,3.8-0.5,5.7-0.7c0.3,0,0.5,0,0.8-0.2c0.4-0.1,0.6-0.5,0.6-0.9c0-6.9,0-13.9,0-20.8c0.1-0.7-0.6-1.3-1.3-1.1
	c-1,0.1-2.1,0.3-3.1,0.4C11.9,27.2,6.6,27.8,1.2,28.5 M33.5,24.5c-2.5,0.3-5.1,1.1-7.1,2.8c-1.7,1.6-2.6,3.9-2.5,6.2
	c-0.1,1.4,0.2,2.9,1,4c0.5,0.8,1.3,1.4,2.2,1.8c-1.5,2.5-3,5-4.6,7.5c-0.3,0.5-0.3,1,0,1.5c0.2,0.4,0.8,0.5,1.2,0.4
	c2.6-0.3,5.3-0.7,7.9-1c0.4,0,0.9-0.2,1.1-0.6c0.5-0.9,0.9-1.8,1.4-2.7c0,0.6,0,1.2,0,1.8c0,0.5,0.5,1,1,1c0.3,0,0.6,0,0.9-0.1
	c2.1-0.3,4.2-0.5,6.3-0.8c0.4,0,0.8-0.1,1.1-0.4c0.2-0.3,0.3-0.7,0.3-1c0-6.1,0-12.2,0-18.3c0-0.8,0-1.7,0-2.5
	c-0.1-0.5-0.5-0.8-1-0.8c-0.7,0-1.4,0.1-2.2,0.2C38.3,24,35.9,24.2,33.5,24.5 M61.7,21h0.4c0.5,0.1,1,0.6,1,1.1c0,1.7,0,3.4,0,5.1
	c0,0.7,0,1.4-0.1,2.1c-0.1,0.5-0.7,0.8-1.1,0.8c-1,0.2-2,0.2-3,0.4v10.3c0,0.9,0.1,1.9,0,2.8c-0.1,0.6-0.7,0.9-1.2,0.9
	c-1.6,0.2-3.1,0.4-4.7,0.6c-1,0.1-2,0.3-3,0.2c-0.3,0-0.5-0.3-0.6-0.5c-0.2-0.5-0.2-1-0.2-1.5c0-3.9,0-7.8,0-11.7
	c-0.8,0.1-1.7,0.2-2.5,0.3c-0.4,0-1,0.1-1.3-0.3c-0.4-0.3-0.3-0.9-0.3-1.3c0-2,0-4,0-6c0-0.4,0-0.8,0.3-1.1c0.4-0.5,1-0.4,1.6-0.5
	C51.9,22.3,56.8,21.7,61.7,21"/>
</svg>
