<svg xmlns="http://www.w3.org/2000/svg" viewBox="0 0 155.1 62.95">
    <path d="M74.78,0h.54a1.48,1.48,0,0,1,1.17,1.36c0,2,0,4.07,0,6.12a15.71,15.71,0,0,1-.09,2.58c-.09.65-.8.92-1.36,1-1.19.19-2.39.29-3.59.45V24c0,1.15.06,2.28,0,3.41A1.45,1.45,0,0,1,70,28.51c-1.9.22-3.81.47-5.71.7a17.93,17.93,0,0,1-3.67.28,1.19,1.19,0,0,1-.76-.62,5.06,5.06,0,0,1-.21-1.77q0-7.06,0-14.13c-1,.11-2,.26-3.06.37-.53,0-1.19.08-1.54-.41a2,2,0,0,1-.37-1.55c0-2.42,0-4.84,0-7.24,0-.43,0-1,.31-1.3.48-.55,1.26-.52,1.9-.62C62.85,1.48,68.81.77,74.78,0ZM40.57,4.24A14.84,14.84,0,0,0,32,7.65a10.09,10.09,0,0,0-3.08,7.46A8.23,8.23,0,0,0,30.15,20a5.72,5.72,0,0,0,2.68,2.18c-1.83,3-3.68,6.06-5.52,9.09a1.54,1.54,0,0,0,0,1.77,1.47,1.47,0,0,0,1.48.5c3.19-.4,6.38-.8,9.57-1.17a1.54,1.54,0,0,0,1.36-.71c.61-1.07,1.09-2.2,1.68-3.29,0,.74,0,1.47.06,2.19a1.33,1.33,0,0,0,1.19,1.23,7.08,7.08,0,0,0,1.09-.08c2.56-.33,5.11-.62,7.67-.94a2.34,2.34,0,0,0,1.32-.44,1.69,1.69,0,0,0,.36-1.24q0-11.07,0-22.14c0-1,0-2-.05-3a1.24,1.24,0,0,0-1.25-1,24.15,24.15,0,0,0-2.62.29ZM1.41,9a1.52,1.52,0,0,0-1.16.57A1.86,1.86,0,0,0,0,10.75q0,12,0,24c0,.51-.08,1.09.24,1.53a1.18,1.18,0,0,0,.78.52,19.35,19.35,0,0,0,3.05-.27c2-.24,4.09-.51,6.14-.73a1.86,1.86,0,0,0,1.09-.36c.58-.36.53-1.14.56-1.75q0-7.61,0-15.24l2.59-.32c0,5.13,0,10.28,0,15.4a1.39,1.39,0,0,0,1.14,1.52,13,13,0,0,0,2-.18c2.31-.27,4.62-.57,6.93-.84a3.36,3.36,0,0,0,1-.19,1.21,1.21,0,0,0,.77-1.13q0-12.6,0-25.19A1.3,1.3,0,0,0,24.75,6.2c-1.26.09-2.49.31-3.75.43ZM143,21a1.71,1.71,0,0,0-1.43.71,5.94,5.94,0,0,0,0,2.68c.48,5.08,1,10.14,1.41,15.22A3.2,3.2,0,0,0,143.3,41a1.89,1.89,0,0,0,1.8.49c2.08-.27,4.16-.52,6.25-.77a4.2,4.2,0,0,0,1.63-.43,2.29,2.29,0,0,0,.51-1.55c.33-3.72.69-7.46,1-11.19.18-2,.33-4,.58-6v-.64c-.22-.42-.45-.93-1-1a14.31,14.31,0,0,0-3,.21C148.4,20.35,145.71,20.7,143,21ZM121.26,23.7a1.44,1.44,0,0,0-1.32,1.12L111.1,50.7a1.46,1.46,0,0,0,.32,1.51,1.76,1.76,0,0,0,1.55.38c3.17-.42,6.35-.76,9.51-1.19a1.38,1.38,0,0,0,1-1c.2-.75.35-1.5.52-2.25,1.51-.25,3-.42,4.55-.58a17.49,17.49,0,0,0,.68,2.3,1.59,1.59,0,0,0,1.67.55c2.47-.33,4.94-.6,7.4-.91.77-.1,1.54-.15,2.3-.31a1.4,1.4,0,0,0,.86-1.66,19.9,19.9,0,0,0-.66-1.91l-8-22a1.53,1.53,0,0,0-.57-.87,1.93,1.93,0,0,0-1.57-.19C127.52,22.95,124.38,23.32,121.26,23.7Zm-21.14,2.59c-.71,0-1.58.37-1.64,1.18,0,5.39,0,10.77,0,16.16-.89.14-1.77.22-2.64.33,0-5,0-10.07,0-15.12a1.68,1.68,0,0,0-.62-1.6,2.07,2.07,0,0,0-1.45-.17c-2.44.33-4.9.61-7.34.91a5,5,0,0,0-2,.42A1.59,1.59,0,0,0,84,29.76Q84,42,84,54.19a2,2,0,0,0,.25,1.2,1.44,1.44,0,0,0,.9.54,19.55,19.55,0,0,0,2.29-.22l7.34-.91c1.25-.12,2.48-.33,3.73-.4,0,1.23-.05,2.47,0,3.72a1.38,1.38,0,0,0,1.6,1.05c1-.1,2.07-.26,3.11-.39s2.32-.23,3.46-.45c.57-.15.82-.77,1-1.28,1.45-4.22,2.89-8.45,4.35-12.67a1.74,1.74,0,0,0-.06-1.65c-.34-.58-1.1-.62-1.68-.65q0-7.34,0-14.71c0-.65,0-1.42-.57-1.87a2.23,2.23,0,0,0-1.66-.19ZM71.79,29.8c-.53.09-.78.61-1,1Q68.49,34.94,66.21,39c-.07-2.3,0-4.6,0-6.91a1.39,1.39,0,0,0-1-1.41,11.39,11.39,0,0,0-2.47.17l-6.68.82a1.57,1.57,0,0,0-1.17.58,1.58,1.58,0,0,0-.23,1.06q0,11.07,0,22.14c0,1,0,2,0,3a1.29,1.29,0,0,0,1,1,19,19,0,0,0,3.06-.28L65,58.47a1.5,1.5,0,0,0,1.29-.78q2.31-4.2,4.64-8.41c0,2.12,0,4.24,0,6.36A2.09,2.09,0,0,0,71.22,57a1.25,1.25,0,0,0,1.29.52c1.37-.12,2.73-.33,4.09-.49,1.6-.21,3.21-.36,4.81-.61a1.26,1.26,0,0,0,1-1.25q0-12.42,0-24.82c0-.51,0-1.16-.53-1.44a2.18,2.18,0,0,0-1.64-.2C77.44,29.12,74.61,29.41,71.79,29.8Zm-29,3.55a1.78,1.78,0,0,0-1.06.4A1.59,1.59,0,0,0,41.3,35c0,2.29,0,4.59,0,6.87-.86.15-1.72.25-2.59.32,0-1.89,0-3.78,0-5.66a3.84,3.84,0,0,0-.3-1.92,1.63,1.63,0,0,0-1.66-.48c-2.68.33-5.38.68-8.08,1a2.19,2.19,0,0,0-1.44.47c-.47.42-.42,1.12-.44,1.69q0,11.64,0,23.28a3.72,3.72,0,0,0,.33,2,1.58,1.58,0,0,0,.82.46,13.65,13.65,0,0,0,2.14-.19c2.32-.28,4.63-.58,6.94-.84a1.75,1.75,0,0,0,1.35-.57,2.51,2.51,0,0,0,.33-1.58c0-2.3,0-4.59,0-6.88l2.59-.32c0,2.28,0,4.54,0,6.8a1.87,1.87,0,0,0,.31,1.3,1.52,1.52,0,0,0,1.54.49l8.22-1a2.43,2.43,0,0,0,1.35-.41,1.54,1.54,0,0,0,.42-1.26q0-12.23,0-24.44a1.64,1.64,0,0,0-.5-1.49c-.47-.39-1.1-.23-1.67-.21C48.23,32.68,45.49,33,42.75,33.34Zm100.89,9.77a1.3,1.3,0,0,0-1.16,1.28c-.12,1.91,0,3.85-.06,5.75a14.36,14.36,0,0,0,.14,2.76,1.44,1.44,0,0,0,1.67.86l8.28-1a1.65,1.65,0,0,0,1.09-.44c.48-.41.4-1.13.43-1.7,0-1.91,0-3.82,0-5.72a7.83,7.83,0,0,0-.16-2.06,1.38,1.38,0,0,0-1.42-.81C149.53,42.38,146.58,42.73,143.65,43.11Z"/>
</svg>