<?xml version="1.0" encoding="utf-8"?>
<!-- Generator: Adobe Illustrator 21.1.0, SVG Export Plug-In . SVG Version: 6.00 Build 0)  -->
<svg version="1.1" id="Layer_1" xmlns="http://www.w3.org/2000/svg" xmlns:xlink="http://www.w3.org/1999/xlink" x="0px" y="0px"
	 viewBox="0 0 258.3 250" style="enable-background:new 0 0 258.3 250;" xml:space="preserve">
<path d="M177.8,161.8c19.7,19.7,39.1,39,58.4,58.6c2.1,2.1,3.9,5,4.7,7.9c1.1,4.4-0.8,8.2-4.8,10.6c-3.9,2.3-8,2.2-11.7-0.4
	c-1.5-1-2.8-2.4-4-3.7c-19.2-19.2-38.4-38.4-57.7-57.8c-24.2,18.2-51,25-80.5,18.7c-23.9-5.1-43.2-17.9-57.5-37.7
	C-4.1,118.2,1.7,64,38.1,30.6c34.9-32.1,90-33,126.2-2.4C201.4,59.5,212.1,116.8,177.8,161.8z M177,101.7
	c0-41.1-33.3-74.4-74.2-74.5c-41-0.1-74.8,33.5-74.9,74.6c-0.1,41.2,33.4,74.6,74.7,74.6C143.9,176.3,177,143.1,177,101.7z"/>
<path d="M113.3,112.6c0,7.2,0.1,13.9,0,20.5c-0.1,5.8-3,9.7-7.6,11c-7.1,2-13.5-2.8-13.7-10.3c-0.1-3.5,0-7,0-10.5
	c0-3.3,0-6.6,0-10.7c-7,0-13.8,0.1-20.6,0c-6.2-0.1-10.4-3.5-11.3-8.6c-1.2-6.7,3.5-12.6,10.6-12.7c6.8-0.2,13.7-0.1,20.5-0.2
	c0.1,0,0.2-0.2,0.8-0.8c0-6.1,0-12.8,0-19.4c0-6.9,4.1-11.5,10.3-11.6c6.5-0.2,10.8,4.2,11.1,11.4c0.1,3.3,0,6.7,0,10
	c0,3.3,0,6.6,0,10.6c6.9,0,13.3,0,19.7,0c7.4,0,12,3.9,12.2,10.3c0.2,6.6-4.4,10.9-12,11.1C126.8,112.7,120.3,112.6,113.3,112.6z"/>
</svg>
