<svg id="Layer_1" data-name="Layer 1" xmlns="http://www.w3.org/2000/svg" viewBox="0 0 128.34 60.38"><defs><style>.cls-1{font-size:20.11px;fill:#999;font-family:IntroFriday, Intro Friday;}.cls-2{fill:#fff;}.cls-3{fill:none;}</style></defs><title>LOGO_RT!_store</title><text class="cls-1" transform="matrix(1, -0.12, 0, 1, 68.73, 24.41)">ST</text><text class="cls-1" transform="matrix(1, -0.12, 0, 1, 90.94, 21.68)">ORE</text><path class="cls-2" d="M118.58,41.19a1.07,1.07,0,0,0-1,1.05c-.1,1.58,0,3.17,0,4.75a11.83,11.83,0,0,0,.11,2.28,1.19,1.19,0,0,0,1.38.71l6.84-.84a1.37,1.37,0,0,0,.9-.37c.4-.34.33-.93.36-1.4,0-1.57,0-3.15,0-4.72a6.46,6.46,0,0,0-.13-1.7,1.14,1.14,0,0,0-1.17-.67l-7.28.91M35.29,33.13a1.46,1.46,0,0,0-.87.33,1.31,1.31,0,0,0-.33,1c0,1.89,0,3.78,0,5.67-.71.13-1.42.21-2.14.27,0-1.56,0-3.12,0-4.67a3.18,3.18,0,0,0-.25-1.58,1.34,1.34,0,0,0-1.37-.4c-2.21.27-4.44.56-6.67.82a1.8,1.8,0,0,0-1.19.39c-.39.35-.35.93-.36,1.4q0,9.61,0,19.22a3.07,3.07,0,0,0,.27,1.62,1.31,1.31,0,0,0,.68.38,11.3,11.3,0,0,0,1.77-.16c1.91-.23,3.82-.47,5.73-.69a1.45,1.45,0,0,0,1.11-.47,2.08,2.08,0,0,0,.27-1.3c0-1.9,0-3.79,0-5.68L34.09,49c0,1.88,0,3.75,0,5.62a1.55,1.55,0,0,0,.26,1.07,1.25,1.25,0,0,0,1.27.4l6.79-.84a2,2,0,0,0,1.11-.34,1.27,1.27,0,0,0,.34-1q0-10.09,0-20.17a1.35,1.35,0,0,0-.41-1.23c-.39-.32-.91-.19-1.38-.17l-6.78.83m24-2.93c-.44.07-.65.5-.86.85q-1.86,3.4-3.75,6.77c-.06-1.9,0-3.8,0-5.7A1.15,1.15,0,0,0,53.84,31a9.45,9.45,0,0,0-2,.14l-5.51.68a1.15,1.15,0,0,0-1.16,1.35q0,9.13,0,18.28c0,.83,0,1.67,0,2.49a1.07,1.07,0,0,0,.79.83,15.67,15.67,0,0,0,2.52-.23l5.16-.63a1.24,1.24,0,0,0,1.07-.64q1.91-3.47,3.83-6.94c0,1.75,0,3.5,0,5.25a1.73,1.73,0,0,0,.25,1.13,1,1,0,0,0,1.07.43c1.13-.1,2.25-.27,3.38-.4,1.32-.18,2.65-.3,4-.5a1,1,0,0,0,.84-1q0-10.25,0-20.49c0-.42,0-1-.44-1.19a1.81,1.81,0,0,0-1.36-.17c-2.33.32-4.67.56-7,.88m23.39-2.89c-.59,0-1.3.31-1.36,1,0,4.45,0,8.89,0,13.34-.73.11-1.46.18-2.18.28,0-4.15,0-8.32,0-12.48a1.39,1.39,0,0,0-.51-1.32,1.71,1.71,0,0,0-1.2-.14c-2,.27-4,.5-6.06.75a4.09,4.09,0,0,0-1.61.35,1.31,1.31,0,0,0-.39,1.11q0,10.09,0,20.17a1.61,1.61,0,0,0,.2,1,1.19,1.19,0,0,0,.75.45,15.87,15.87,0,0,0,1.89-.18l6.06-.75c1-.1,2.05-.28,3.08-.33,0,1,0,2,0,3.07a1.13,1.13,0,0,0,1.32.87c.86-.08,1.71-.22,2.57-.32s1.91-.19,2.86-.37c.47-.12.68-.64.83-1.06,1.2-3.49,2.38-7,3.59-10.46a1.44,1.44,0,0,0,0-1.37c-.28-.48-.91-.51-1.39-.54q0-6.06,0-12.14c0-.53,0-1.18-.47-1.54a1.85,1.85,0,0,0-1.37-.15l-6.57.8m17.45-2.14a1.19,1.19,0,0,0-1.09.92l-7.3,21.36A1.2,1.2,0,0,0,92,48.71a1.45,1.45,0,0,0,1.28.31c2.62-.35,5.24-.63,7.85-1a1.14,1.14,0,0,0,.83-.86c.16-.62.29-1.24.43-1.86,1.24-.2,2.49-.35,3.75-.48a14.33,14.33,0,0,0,.56,1.9,1.31,1.31,0,0,0,1.38.45c2-.27,4.08-.5,6.11-.75.63-.08,1.27-.12,1.9-.25a1.15,1.15,0,0,0,.71-1.37,16.3,16.3,0,0,0-.55-1.58L109.62,25.1a1.26,1.26,0,0,0-.47-.72,1.6,1.6,0,0,0-1.3-.16l-7.74.95m17.95-2.22a1.41,1.41,0,0,0-1.18.59,4.91,4.91,0,0,0,0,2.21c.4,4.19.8,8.37,1.16,12.56a2.64,2.64,0,0,0,.29,1.11,1.56,1.56,0,0,0,1.49.4c1.72-.22,3.44-.43,5.16-.63a3.47,3.47,0,0,0,1.35-.36,1.89,1.89,0,0,0,.42-1.28c.27-3.07.57-6.16.85-9.24.15-1.66.27-3.32.48-5v-.53c-.18-.34-.37-.77-.79-.86a11.84,11.84,0,0,0-2.51.18c-2.22.27-4.45.56-6.68.82M1.16,13.07a1.25,1.25,0,0,0-1,.47,1.54,1.54,0,0,0-.2.94q0,9.94,0,19.85c0,.43-.07.9.2,1.26A1,1,0,0,0,.84,36a16.09,16.09,0,0,0,2.52-.22c1.69-.19,3.38-.42,5.07-.61a1.54,1.54,0,0,0,.9-.3c.48-.3.44-.94.46-1.44q0-6.28,0-12.58l2.14-.26c0,4.23,0,8.48,0,12.72a1.14,1.14,0,0,0,.94,1.25,10.58,10.58,0,0,0,1.66-.15l5.72-.69a2.74,2.74,0,0,0,.8-.16,1,1,0,0,0,.64-.93q0-10.4,0-20.8a1.07,1.07,0,0,0-1.25-1.11c-1,.07-2.06.25-3.1.36l-16.17,2m32.33-4a12.25,12.25,0,0,0-7.07,2.82,8.33,8.33,0,0,0-2.54,6.15,6.79,6.79,0,0,0,1,4,4.73,4.73,0,0,0,2.21,1.8c-1.51,2.5-3,5-4.56,7.5a1.27,1.27,0,0,0,0,1.46,1.21,1.21,0,0,0,1.22.41q3.95-.49,7.9-1a1.27,1.27,0,0,0,1.12-.59c.5-.88.9-1.81,1.39-2.72,0,.61,0,1.21,0,1.81a1.1,1.1,0,0,0,1,1,5.82,5.82,0,0,0,.9-.07c2.11-.27,4.22-.51,6.33-.78a1.94,1.94,0,0,0,1.09-.37,1.4,1.4,0,0,0,.3-1q0-9.14,0-18.27c0-.83,0-1.67,0-2.5a1,1,0,0,0-1-.84,19.89,19.89,0,0,0-2.16.24l-7.14.87M61.73,5.6h.45a1.22,1.22,0,0,1,1,1.13c0,1.68,0,3.36,0,5.05a12.89,12.89,0,0,1-.08,2.13c-.07.54-.66.75-1.13.82-1,.16-2,.24-3,.38V25.45c0,.95.05,1.88,0,2.81a1.2,1.2,0,0,1-1.19.88c-1.57.18-3.15.39-4.72.58a14.8,14.8,0,0,1-3,.23,1,1,0,0,1-.63-.51A4.19,4.19,0,0,1,49.21,28q0-5.83,0-11.67c-.84.09-1.68.22-2.52.3-.44,0-1,.06-1.27-.34A1.64,1.64,0,0,1,45.11,15c0-2,0-4,0-6,0-.36,0-.8.26-1.07.39-.46,1-.43,1.57-.51,4.93-.59,9.86-1.18,14.78-1.82" transform="translate(0 2.81)"/><rect class="cls-3" y="2.81" width="128.06" height="57.57"/></svg>