<?xml version="1.0" encoding="utf-8"?>
<!-- Generator: Adobe Illustrator 21.1.0, SVG Export Plug-In . SVG Version: 6.00 Build 0)  -->
<svg version="1.1" id="Layer_1" xmlns="http://www.w3.org/2000/svg" xmlns:xlink="http://www.w3.org/1999/xlink" x="0px" y="0px"
	 viewBox="0 0 121.4 121.9" style="enable-background:new 0 0 121.4 121.9;" xml:space="preserve">
<style type="text/css">
	.st-vertical-arrow-1{fill:#010101;}
	.st-vertical-arrow-2{fill:#FFFFFF;}
</style>
<circle class="st-vertical-arrow-1" cx="61.4" cy="62.8" r="55.7"/>
<path class="st-vertical-arrow-2" d="M80.9,74c-5.6-6-11.2-12-16.8-18c-0.9-0.9-1.8-1.9-2.7-2.9c-0.9,0.9-1.7,1.8-2.4,2.6
	C53.3,61.7,47.6,67.9,41.9,74c-0.1,0-0.2,0-0.3,0c-0.8-0.9-1.7-1.9-2.5-2.8c0-0.1,0-0.2,0-0.3c0.5-0.4,1-0.8,1.4-1.3
	c6.6-7,13.2-14.1,19.8-21.1c0.3-0.4,0.7-0.7,1.2-1.4c0.4,0.5,0.7,1,1,1.4c6.6,7.1,13.3,14.2,19.9,21.4c0.4,0.4,0.8,0.7,1.2,1.1
	c0,0.1,0,0.2,0,0.3C82.8,72.1,82,73,81.2,74C81.1,74,81,74,80.9,74z"/>
</svg>
